# xmcd
#
# Track frame offsets: 
#        150
#        14905
#        29769
#        43752
#        54382
#        62521
#        70776
#        86167
#        97793
#        106447
#
# Disc length: 1538 seconds
#
# Revision: 0
# Processed by: cddbd v1.5.2PL0 Copyright (c) Steve Scherf et al.
# Submitted via: ExactAudioCopy v0.99pb4
#
DISCID=8606000a
DTITLE=Billie Holiday - Ultimate 20 - Disc 1
DYEAR=2008
DGENRE=R&B
TTITLE0=Lover Man
TTITLE1=Don't Explain
TTITLE2=God Bless The Child
TTITLE3=Ain't Nobody's Business
TTITLE4=Miss Brown To You
TTITLE5=I Loves You Porgy
TTITLE6=Strange Fruit
TTITLE7=Nice Work If You Can Get It
TTITLE8=Moanin' Low
TTITLE9=When Your Lover Has Gone
EXTD=
EXTT0=
EXTT1=
EXTT2=
EXTT3=
EXTT4=
EXTT5=
EXTT6=
EXTT7=
EXTT8=
EXTT9=
PLAYORDER=
